<?xml version="1.0"?>
<svg xmlns="http://www.w3.org/2000/svg" version="1.1" width="866.0787353515625pt" height="498.2633972167969pt" viewBox="-575.0787401574767 -281.36338564302724 866.0787401574768 498.2633856430272" preserveAspectRatio="none" xmlns:xlink="http://www.w3.org/1999/xlink">
  <defs>
  </defs>
  <path d="M-363.00946044921875,-163.0233154296875 L-338.0283508300781,-162.4287567138672 " stroke="#6E6E6E" fill="none" stroke-width="1" stroke-opacity="1" />
  <path d="M-332.3299560546875,-162.2931365966797 L-338.0811767578125,-160.20938110351562 L-337.97552490234375,-164.64813232421875 L-332.3299560546875,-162.2931365966797 " stroke="none" fill="#6E6E6E" fill-rule="evenodd" stroke-width="0" fill-opacity="1" />
  <path d="M-332.3299560546875,-162.2931365966797 L-338.0811767578125,-160.20938110351562 L-337.97552490234375,-164.64813232421875 L-332.3299560546875,-162.2931365966797 " stroke="#6E6E6E" fill="none" stroke-width="1" stroke-opacity="1" />
  <path d="M-458.29656982421875,-164.64047241210938 L-443.1090087890625,-164.44912719726562 " stroke="#6E6E6E" fill="none" stroke-width="1" stroke-opacity="1" />
  <path d="M-437.4094543457031,-164.37733459472656 L-443.136962890625,-162.2293243408203 L-443.0810241699219,-166.66896057128906 L-437.4094543457031,-164.37733459472656 " stroke="none" fill="#6E6E6E" fill-rule="evenodd" stroke-width="0" fill-opacity="1" />
  <path d="M-437.4094543457031,-164.37733459472656 L-443.136962890625,-162.2293243408203 L-443.0810241699219,-166.66896057128906 L-437.4094543457031,-164.37733459472656 " stroke="#6E6E6E" fill="none" stroke-width="1" stroke-opacity="1" />
  <path d="M41.95287322998047,-139.01339721679688 L73.1817626953125,-105.57142639160156 " stroke="#6E6E6E" fill="none" stroke-width="1" stroke-opacity="1" />
  <path d="M77.07206726074219,-101.40543365478516 L71.55921936035156,-104.05625915527344 L74.80430603027344,-107.08660125732422 L77.07206726074219,-101.40543365478516 " stroke="none" fill="#6E6E6E" fill-rule="evenodd" stroke-width="0" fill-opacity="1" />
  <path d="M77.07206726074219,-101.40543365478516 L71.55921936035156,-104.05625915527344 L74.80430603027344,-107.08660125732422 L77.07206726074219,-101.40543365478516 " stroke="#6E6E6E" fill="none" stroke-width="1" stroke-opacity="1" />
  <path d="M-259.77874755859375,-92.30321502685547 L-233.66201782226562,-92.15567016601562 " stroke="#6E6E6E" fill="none" stroke-width="1" stroke-opacity="1" />
  <path d="M-227.96209716796875,-92.12346649169922 L-233.67454528808594,-89.93570709228516 L-233.64947509765625,-94.3756332397461 L-227.96209716796875,-92.12346649169922 " stroke="none" fill="#6E6E6E" fill-rule="evenodd" stroke-width="0" fill-opacity="1" />
  <path d="M-227.96209716796875,-92.12346649169922 L-233.67454528808594,-89.93570709228516 L-233.64947509765625,-94.3756332397461 L-227.96209716796875,-92.12346649169922 " stroke="#6E6E6E" fill="none" stroke-width="1" stroke-opacity="1" />
  <path d="M-295.8108825683594,-137.74868774414062 L-296.2197570800781,-121.91148376464844 " stroke="#6E6E6E" fill="none" stroke-width="1" stroke-opacity="1" />
  <path d="M-296.36688232421875,-116.21338653564453 L-298.43902587890625,-121.96878814697266 L-294.00048828125,-121.85419464111328 L-296.36688232421875,-116.21338653564453 " stroke="none" fill="#6E6E6E" fill-rule="evenodd" stroke-width="0" fill-opacity="1" />
  <path d="M-296.36688232421875,-116.21338653564453 L-298.43902587890625,-121.96878814697266 L-294.00048828125,-121.85419464111328 L-296.36688232421875,-116.21338653564453 " stroke="#6E6E6E" fill="none" stroke-width="1" stroke-opacity="1" />
  <path d="M-356.3970642089844,-92.14432525634766 L-339.8786315917969,-92.24693298339844 " stroke="#6E6E6E" fill="none" stroke-width="1" stroke-opacity="1" />
  <path d="M-334.17877197265625,-92.28233337402344 L-339.8648681640625,-90.0269775390625 L-339.8924560546875,-94.46688842773438 L-334.17877197265625,-92.28233337402344 " stroke="none" fill="#6E6E6E" fill-rule="evenodd" stroke-width="0" fill-opacity="1" />
  <path d="M-334.17877197265625,-92.28233337402344 L-339.8648681640625,-90.0269775390625 L-339.8924560546875,-94.46688842773438 L-334.17877197265625,-92.28233337402344 " stroke="#6E6E6E" fill="none" stroke-width="1" stroke-opacity="1" />
  <path d="M-152.97874450683594,-19.117664337158203 L-120.8144760131836,-18.429658889770508 " stroke="#6E6E6E" fill="none" stroke-width="1" stroke-opacity="1" />
  <path d="M-115.11578369140625,-18.30776023864746 L-120.86195373535156,-16.210166931152344 L-120.76699829101562,-20.649150848388672 L-115.11578369140625,-18.30776023864746 " stroke="none" fill="#6E6E6E" fill-rule="evenodd" stroke-width="0" fill-opacity="1" />
  <path d="M-115.11578369140625,-18.30776023864746 L-120.86195373535156,-16.210166931152344 L-120.76699829101562,-20.649150848388672 L-115.11578369140625,-18.30776023864746 " stroke="#6E6E6E" fill="none" stroke-width="1" stroke-opacity="1" />
  <path d="M-190.5813446044922,-68.22606658935547 L-190.42373657226562,-49.31318664550781 " stroke="#6E6E6E" fill="none" stroke-width="1" stroke-opacity="1" />
  <path d="M-190.37625122070312,-43.61338806152344 L-192.64366149902344,-49.29469299316406 L-188.20382690429688,-49.33169174194336 L-190.37625122070312,-43.61338806152344 " stroke="none" fill="#6E6E6E" fill-rule="evenodd" stroke-width="0" fill-opacity="1" />
  <path d="M-190.37625122070312,-43.61338806152344 L-192.64366149902344,-49.29469299316406 L-188.20382690429688,-49.33169174194336 L-190.37625122070312,-43.61338806152344 " stroke="#6E6E6E" fill="none" stroke-width="1" stroke-opacity="1" />
  <path d="M-249.05230712890625,-18.441547393798828 L-233.07696533203125,-18.840930938720703 " stroke="#6E6E6E" fill="none" stroke-width="1" stroke-opacity="1" />
  <path d="M-227.37875366210938,-18.983386993408203 L-233.021484375,-16.621623992919922 L-233.1324462890625,-21.060237884521484 L-227.37875366210938,-18.983386993408203 " stroke="none" fill="#6E6E6E" fill-rule="evenodd" stroke-width="0" fill-opacity="1" />
  <path d="M-227.37875366210938,-18.983386993408203 L-233.021484375,-16.621623992919922 L-233.1324462890625,-21.060237884521484 L-227.37875366210938,-18.983386993408203 " stroke="#6E6E6E" fill="none" stroke-width="1" stroke-opacity="1" />
  <path d="M-38.378746032714844,54.94305419921875 L-20.642169952392578,55.160682678222656 " stroke="#6E6E6E" fill="none" stroke-width="1" stroke-opacity="1" />
  <path d="M-14.942598342895508,55.230613708496094 L-20.66940689086914,57.380516052246094 L-20.614933013916016,52.94084930419922 L-14.942598342895508,55.230613708496094 " stroke="none" fill="#6E6E6E" fill-rule="evenodd" stroke-width="0" fill-opacity="1" />
  <path d="M-14.942598342895508,55.230613708496094 L-20.66940689086914,57.380516052246094 L-20.614933013916016,52.94084930419922 L-14.942598342895508,55.230613708496094 " stroke="#6E6E6E" fill="none" stroke-width="1" stroke-opacity="1" />
  <path d="M-77.1904296875,6.135985851287842 L-76.55863952636719,25.08977699279785 " stroke="#6E6E6E" fill="none" stroke-width="1" stroke-opacity="1" />
  <path d="M-76.36874389648438,30.78661346435547 L-78.77740478515625,25.16373634338379 L-74.33987426757812,25.015819549560547 L-76.36874389648438,30.78661346435547 " stroke="none" fill="#6E6E6E" fill-rule="evenodd" stroke-width="0" fill-opacity="1" />
  <path d="M-76.36874389648438,30.78661346435547 L-78.77740478515625,25.16373634338379 L-74.33987426757812,25.015819549560547 L-76.36874389648438,30.78661346435547 " stroke="#6E6E6E" fill="none" stroke-width="1" stroke-opacity="1" />
  <path d="M-136.86842346191406,56.35519790649414 L-118.4760971069336,55.79446029663086 " stroke="#6E6E6E" fill="none" stroke-width="1" stroke-opacity="1" />
  <path d="M-112.77874755859375,55.620758056640625 L-118.408447265625,58.013427734375 L-118.54374694824219,53.57548904418945 L-112.77874755859375,55.620758056640625 " stroke="none" fill="#6E6E6E" fill-rule="evenodd" stroke-width="0" fill-opacity="1" />
  <path d="M-112.77874755859375,55.620758056640625 L-118.408447265625,58.013427734375 L-118.54374694824219,53.57548904418945 L-112.77874755859375,55.620758056640625 " stroke="#6E6E6E" fill="none" stroke-width="1" stroke-opacity="1" />
  <path d="M21.961002349853516,32.003326416015625 L20.144330978393555,-133.31373596191406 " stroke="#6E6E6E" fill="none" stroke-width="1" stroke-opacity="1" />
  <path d="M20.081697463989258,-139.01339721679688 L22.36419677734375,-133.338134765625 L17.924463272094727,-133.2893524169922 L20.081697463989258,-139.01339721679688 " stroke="none" fill="#6E6E6E" fill-rule="evenodd" stroke-width="0" fill-opacity="1" />
  <path d="M20.081697463989258,-139.01339721679688 L22.36419677734375,-133.338134765625 L17.924463272094727,-133.2893524169922 L20.081697463989258,-139.01339721679688 " stroke="#6E6E6E" fill="none" stroke-width="1" stroke-opacity="1" />
  <path d="M-22.778743743896484,159.0228729248047 L60.932090759277344,159.32949829101562 " stroke="#6E6E6E" fill="none" stroke-width="1" stroke-opacity="1" />
  <path d="M66.63204956054688,159.3503875732422 L60.92395782470703,161.54949951171875 L60.940223693847656,157.10952758789062 L66.63204956054688,159.3503875732422 " stroke="none" fill="#6E6E6E" fill-rule="evenodd" stroke-width="0" fill-opacity="1" />
  <path d="M66.63204956054688,159.3503875732422 L60.92395782470703,161.54949951171875 L60.940223693847656,157.10952758789062 L66.63204956054688,159.3503875732422 " stroke="#6E6E6E" fill="none" stroke-width="1" stroke-opacity="1" />
  <path d="M5.456684589385986,76.73410034179688 L-37.550148010253906,130.7280731201172 " stroke="#6E6E6E" fill="none" stroke-width="1" stroke-opacity="1" />
  <path d="M-41.101417541503906,135.18661499023438 L-39.28662872314453,129.34495544433594 L-35.81366729736328,132.1112060546875 L-41.101417541503906,135.18661499023438 " stroke="none" fill="#6E6E6E" fill-rule="evenodd" stroke-width="0" fill-opacity="1" />
  <path d="M-41.101417541503906,135.18661499023438 L-39.28662872314453,129.34495544433594 L-35.81366729736328,132.1112060546875 L-41.101417541503906,135.18661499023438 " stroke="#6E6E6E" fill="none" stroke-width="1" stroke-opacity="1" />
  <path d="M-428.905517578125,-187.60865783691406 L-371.5133972167969,-187.60865783691406 L-371.513427734375,-187.60865783691406 C-366.81683349609375,-187.60867309570312 -363.0094909667969,-183.80133056640625 -363.0094909667969,-179.104736328125 C-363.0094909667969,-179.104736328125 -363.0094909667969,-179.10472106933594 -363.0094909667969,-179.10472106933594 L-363.00946044921875,-179.10472106933594 L-363.00946044921875,-148.7126007080078 L-363.0094909667969,-148.7126007080078 C-363.0094909667969,-144.01600646972656 -366.8168029785156,-140.2086639404297 -371.5133972167969,-140.2086639404297 L-371.5133972167969,-140.2086639404297 L-428.905517578125,-140.2086639404297 L-428.905517578125,-140.2086639404297 C-433.60211181640625,-140.2086639404297 -437.4094543457031,-144.01600646972656 -437.4094543457031,-148.7126007080078 L-437.4094543457031,-179.10472106933594 L-437.40948486328125,-179.10472106933594 C-437.40948486328125,-183.8013153076172 -433.6021423339844,-187.60865783691406 -428.9055480957031,-187.60867309570312 " stroke="none" fill="#F2E279" fill-rule="evenodd" stroke-width="0" fill-opacity="1" />
  <text x="5.779855728149414" y="35.284881591796875" dx="0" dy="0" font-family="Segoe UI" font-size="6.600000157356266pt" fill="#000000" style="text-anchor:start" transform="matrix(0.750000 0.000000 0.000000 0.750000 -437.4094543457031 -187.60865783691406)">XY Table To Point</text>
  <path d="M-428.905517578125,-187.60865783691406 L-371.5133972167969,-187.60865783691406 L-371.513427734375,-187.60865783691406 C-366.81683349609375,-187.60867309570312 -363.0094909667969,-183.80133056640625 -363.0094909667969,-179.104736328125 C-363.0094909667969,-179.104736328125 -363.0094909667969,-179.10472106933594 -363.0094909667969,-179.10472106933594 L-363.00946044921875,-179.10472106933594 L-363.00946044921875,-148.7126007080078 L-363.0094909667969,-148.7126007080078 C-363.0094909667969,-144.01600646972656 -366.8168029785156,-140.2086639404297 -371.5133972167969,-140.2086639404297 L-371.5133972167969,-140.2086639404297 L-428.905517578125,-140.2086639404297 L-428.905517578125,-140.2086639404297 C-433.60211181640625,-140.2086639404297 -437.4094543457031,-144.01600646972656 -437.4094543457031,-148.7126007080078 L-437.4094543457031,-179.10472106933594 L-437.40948486328125,-179.10472106933594 C-437.40948486328125,-183.8013153076172 -433.6021423339844,-187.60865783691406 -428.9055480957031,-187.60867309570312 " stroke="none" fill="none" stroke-width="0.6" stroke-opacity="0" />
  <path d="M-258.0000305175781,-161.4094696044922 C-258.0000305175781,-148.3203125 -274.655029296875,-137.70945739746094 -295.1999816894531,-137.70945739746094 C-315.7449951171875,-137.70945739746094 -332.3999938964844,-148.32029724121094 -332.4000244140625,-161.40943908691406 L-332.4000244140625,-161.40943908691406 C-332.4000244140625,-174.49859619140625 -315.7450256347656,-185.1094512939453 -295.2000427246094,-185.1094512939453 C-274.6550598144531,-185.10946655273438 -258.0000305175781,-174.49862670898438 -258.0000305175781,-161.40945434570312 C-258.0000305175781,-161.40945434570312 -258.0000305175781,-161.40945434570312 -258.0000305175781,-161.40945434570312 " stroke="none" fill="#83CC7C" fill-rule="evenodd" stroke-width="0" fill-opacity="1" />
  <text x="1.9353556632995605" y="35.284881591796875" dx="0" dy="0" font-family="Segoe UI" font-size="6.600000157356266pt" fill="#000000" style="text-anchor:start" transform="matrix(0.750000 0.000000 0.000000 0.750000 -332.3999938964844 -185.1094512939453)">datatable_XYTabl</text>
  <text x="83.34319305419922" y="35.284881591796875" dx="0" dy="0" font-family="Segoe UI" font-size="6.600000157356266pt" fill="#000000" style="text-anchor:start" transform="matrix(0.750000 0.000000 0.000000 0.750000 -332.3999938964844 -185.1094512939453)"> ...</text>
  <path d="M-258.0000305175781,-161.4094696044922 C-258.0000305175781,-148.3203125 -274.655029296875,-137.70945739746094 -295.1999816894531,-137.70945739746094 C-315.7449951171875,-137.70945739746094 -332.3999938964844,-148.32029724121094 -332.4000244140625,-161.40943908691406 L-332.4000244140625,-161.40943908691406 C-332.4000244140625,-174.49859619140625 -315.7450256347656,-185.1094512939453 -295.2000427246094,-185.1094512939453 C-274.6550598144531,-185.10946655273438 -258.0000305175781,-174.49862670898438 -258.0000305175781,-161.40945434570312 C-258.0000305175781,-161.40945434570312 -258.0000305175781,-161.40945434570312 -258.0000305175781,-161.40945434570312 " stroke="none" fill="none" stroke-width="0.6" stroke-opacity="0" />
  <path d="M-458.25946044921875,-165.10867309570312 C-458.25946044921875,-152.01951599121094 -474.9144592285156,-141.40866088867188 -495.45941162109375,-141.40866088867188 C-516.0044555664062,-141.40866088867188 -532.659423828125,-152.01950073242188 -532.6594848632812,-165.108642578125 L-532.6594848632812,-165.108642578125 C-532.6594848632812,-178.1977996826172 -516.0044555664062,-188.80865478515625 -495.45947265625,-188.80865478515625 C-474.91448974609375,-188.8086700439453 -458.25946044921875,-178.1978302001953 -458.25946044921875,-165.10865783691406 C-458.25946044921875,-165.10865783691406 -458.25946044921875,-165.10865783691406 -458.25946044921875,-165.10865783691406 " stroke="none" fill="#70AECC" fill-rule="evenodd" stroke-width="0" fill-opacity="1" />
  <text x="15.56868839263916" y="35.284881591796875" dx="0" dy="0" font-family="Segoe UI" font-size="6.600000157356266pt" fill="#000000" style="text-anchor:start" transform="matrix(0.750000 0.000000 0.000000 0.750000 -532.659423828125 -188.80865478515625)">datatable.csv</text>
  <path d="M-458.25946044921875,-165.10867309570312 C-458.25946044921875,-152.01951599121094 -474.9144592285156,-141.40866088867188 -495.45941162109375,-141.40866088867188 C-516.0044555664062,-141.40866088867188 -532.659423828125,-152.01950073242188 -532.6594848632812,-165.108642578125 L-532.6594848632812,-165.108642578125 C-532.6594848632812,-178.1977996826172 -516.0044555664062,-188.80865478515625 -495.45947265625,-188.80865478515625 C-474.91448974609375,-188.8086700439453 -458.25946044921875,-178.1978302001953 -458.25946044921875,-165.10865783691406 C-458.25946044921875,-165.10865783691406 -458.25946044921875,-165.10865783691406 -458.25946044921875,-165.10865783691406 " stroke="none" fill="none" stroke-width="0.6" stroke-opacity="0" />
  <path d="M-8.87480354309082,-186.41339111328125 L48.51731491088867,-186.41339111328125 L48.51729965209961,-186.41339111328125 C53.21388626098633,-186.4134063720703 57.021244049072266,-182.60606384277344 57.021244049072266,-177.9094696044922 C57.021244049072266,-177.9094696044922 57.021244049072266,-177.90945434570312 57.021244049072266,-177.90945434570312 L57.0212516784668,-177.90945434570312 L57.0212516784668,-147.517333984375 L57.021244049072266,-147.517333984375 C57.021244049072266,-142.82073974609375 53.21390914916992,-139.01339721679688 48.51731491088867,-139.01339721679688 L48.51731491088867,-139.01339721679688 L-8.87480354309082,-139.01339721679688 L-8.874798774719238,-139.01339721679688 C-13.571393966674805,-139.01339721679688 -17.378738403320312,-142.82073974609375 -17.378740310668945,-147.517333984375 L-17.378740310668945,-177.90945434570312 L-17.378742218017578,-177.90945434570312 C-17.378746032714844,-182.60604858398438 -13.571406364440918,-186.41339111328125 -8.874813079833984,-186.4134063720703 " stroke="none" fill="#F2E279" fill-rule="evenodd" stroke-width="0" fill-opacity="1" />
  <text x="14.902188301086426" y="35.284881591796875" dx="0" dy="0" font-family="Segoe UI" font-size="6.600000157356266pt" fill="#000000" style="text-anchor:start" transform="matrix(0.750000 0.000000 0.000000 0.750000 -17.378740310668945 -186.41339111328125)">Table To Excel</text>
  <path d="M-8.87480354309082,-186.41339111328125 L48.51731491088867,-186.41339111328125 L48.51729965209961,-186.41339111328125 C53.21388626098633,-186.4134063720703 57.021244049072266,-182.60606384277344 57.021244049072266,-177.9094696044922 C57.021244049072266,-177.9094696044922 57.021244049072266,-177.90945434570312 57.021244049072266,-177.90945434570312 L57.0212516784668,-177.90945434570312 L57.0212516784668,-147.517333984375 L57.021244049072266,-147.517333984375 C57.021244049072266,-142.82073974609375 53.21390914916992,-139.01339721679688 48.51731491088867,-139.01339721679688 L48.51731491088867,-139.01339721679688 L-8.87480354309082,-139.01339721679688 L-8.874798774719238,-139.01339721679688 C-13.571393966674805,-139.01339721679688 -17.378738403320312,-142.82073974609375 -17.378740310668945,-147.517333984375 L-17.378740310668945,-177.90945434570312 L-17.378742218017578,-177.90945434570312 C-17.378746032714844,-182.60604858398438 -13.571406364440918,-186.41339111328125 -8.874813079833984,-186.4134063720703 " stroke="none" fill="none" stroke-width="0.6" stroke-opacity="0" />
  <path d="M133.2212371826172,-81.11339569091797 C133.2212371826172,-68.02424621582031 116.56623840332031,-57.41339111328125 96.02127075195312,-57.413387298583984 C75.47628021240234,-57.41338348388672 58.82126998901367,-68.02423095703125 58.82125473022461,-81.11337280273438 L58.821250915527344,-81.11337280273438 C58.82123565673828,-94.20252227783203 75.47622680664062,-104.8133773803711 96.0212173461914,-104.81338500976562 C116.56620788574219,-104.81340026855469 133.22122192382812,-94.20255279541016 133.2212371826172,-81.11338806152344 C133.2212371826172,-81.11338806152344 133.2212371826172,-81.11338806152344 133.2212371826172,-81.11338806152344 " stroke="none" fill="#83CC7C" fill-rule="evenodd" stroke-width="0" fill-opacity="1" />
  <text x="8.665188789367676" y="35.284881591796875" dx="0" dy="0" font-family="Segoe UI" font-size="6.600000157356266pt" fill="#000000" style="text-anchor:start" transform="matrix(0.750000 0.000000 0.000000 0.750000 58.821258544921875 -104.81338500976562)">outputtable.xlsx</text>
  <path d="M133.2212371826172,-81.11339569091797 C133.2212371826172,-68.02424621582031 116.56623840332031,-57.41339111328125 96.02127075195312,-57.413387298583984 C75.47628021240234,-57.41338348388672 58.82126998901367,-68.02423095703125 58.82125473022461,-81.11337280273438 L58.821250915527344,-81.11337280273438 C58.82123565673828,-94.20252227783203 75.47622680664062,-104.8133773803711 96.0212173461914,-104.81338500976562 C116.56620788574219,-104.81340026855469 133.22122192382812,-94.20255279541016 133.2212371826172,-81.11338806152344 C133.2212371826172,-81.11338806152344 133.2212371826172,-81.11338806152344 133.2212371826172,-81.11338806152344 " stroke="none" fill="none" stroke-width="0.6" stroke-opacity="0" />
  <path d="M-325.6748046875,-116.21338653564453 L-268.2826843261719,-116.21338653564453 L-268.28271484375,-116.21338653564453 C-263.58612060546875,-116.21339416503906 -259.7787780761719,-112.40605926513672 -259.7787780761719,-107.70945739746094 C-259.7787780761719,-107.70945739746094 -259.7787780761719,-107.7094497680664 -259.7787780761719,-107.7094497680664 L-259.77874755859375,-107.7094497680664 L-259.77874755859375,-77.31732177734375 L-259.7787780761719,-77.31732940673828 C-259.7787780761719,-72.62073516845703 -263.5860900878906,-68.81339263916016 -268.2826843261719,-68.81339263916016 L-268.2826843261719,-68.81339263916016 L-325.6748046875,-68.81339263916016 L-325.6748046875,-68.81339263916016 C-330.37139892578125,-68.81339263916016 -334.1787414550781,-72.6207275390625 -334.1787414550781,-77.31732177734375 L-334.1787414550781,-107.7094497680664 L-334.17877197265625,-107.7094497680664 C-334.17877197265625,-112.40604400634766 -330.3714294433594,-116.21338653564453 -325.6748352050781,-116.21339416503906 " stroke="none" fill="#F2E279" fill-rule="evenodd" stroke-width="0" fill-opacity="1" />
  <text x="19.971023559570312" y="35.284881591796875" dx="0" dy="0" font-family="Segoe UI" font-size="6.600000157356266pt" fill="#000000" style="text-anchor:start" transform="matrix(0.750000 0.000000 0.000000 0.750000 -334.1787414550781 -116.21338653564453)">Spatial Join</text>
  <path d="M-325.6748046875,-116.21338653564453 L-268.2826843261719,-116.21338653564453 L-268.28271484375,-116.21338653564453 C-263.58612060546875,-116.21339416503906 -259.7787780761719,-112.40605926513672 -259.7787780761719,-107.70945739746094 C-259.7787780761719,-107.70945739746094 -259.7787780761719,-107.7094497680664 -259.7787780761719,-107.7094497680664 L-259.77874755859375,-107.7094497680664 L-259.77874755859375,-77.31732177734375 L-259.7787780761719,-77.31732940673828 C-259.7787780761719,-72.62073516845703 -263.5860900878906,-68.81339263916016 -268.2826843261719,-68.81339263916016 L-268.2826843261719,-68.81339263916016 L-325.6748046875,-68.81339263916016 L-325.6748046875,-68.81339263916016 C-330.37139892578125,-68.81339263916016 -334.1787414550781,-72.6207275390625 -334.1787414550781,-77.31732177734375 L-334.1787414550781,-107.7094497680664 L-334.17877197265625,-107.7094497680664 C-334.17877197265625,-112.40604400634766 -330.3714294433594,-116.21338653564453 -325.6748352050781,-116.21339416503906 " stroke="none" fill="none" stroke-width="0.6" stroke-opacity="0" />
  <path d="M-153.57876586914062,-91.91339874267578 C-153.57876586914062,-78.82424926757812 -170.2337646484375,-68.21339416503906 -190.7787322998047,-68.21339416503906 C-211.32373046875,-68.21338653564453 -227.97874450683594,-78.82423400878906 -227.978759765625,-91.91337585449219 L-227.978759765625,-91.91337585449219 C-227.97877502441406,-105.00252532958984 -211.3237762451172,-115.6133804321289 -190.77879333496094,-115.61338806152344 C-170.23379516601562,-115.6134033203125 -153.5787811279297,-105.00255584716797 -153.57876586914062,-91.91339111328125 C-153.57876586914062,-91.91339111328125 -153.57876586914062,-91.91339111328125 -153.57876586914062,-91.91339111328125 " stroke="none" fill="#83CC7C" fill-rule="evenodd" stroke-width="0" fill-opacity="1" />
  <text x="1.9353556632995605" y="35.284881591796875" dx="0" dy="0" font-family="Segoe UI" font-size="6.600000157356266pt" fill="#000000" style="text-anchor:start" transform="matrix(0.750000 0.000000 0.000000 0.750000 -227.97874450683594 -115.61338806152344)">datatable_XYTabl</text>
  <text x="83.34319305419922" y="35.284881591796875" dx="0" dy="0" font-family="Segoe UI" font-size="6.600000157356266pt" fill="#000000" style="text-anchor:start" transform="matrix(0.750000 0.000000 0.000000 0.750000 -227.97874450683594 -115.61338806152344)"> ...</text>
  <path d="M-153.57876586914062,-91.91339874267578 C-153.57876586914062,-78.82424926757812 -170.2337646484375,-68.21339416503906 -190.7787322998047,-68.21339416503906 C-211.32373046875,-68.21338653564453 -227.97874450683594,-78.82423400878906 -227.978759765625,-91.91337585449219 L-227.978759765625,-91.91337585449219 C-227.97877502441406,-105.00252532958984 -211.3237762451172,-115.6133804321289 -190.77879333496094,-115.61338806152344 C-170.23379516601562,-115.6134033203125 -153.5787811279297,-105.00255584716797 -153.57876586914062,-91.91339111328125 C-153.57876586914062,-91.91339111328125 -153.57876586914062,-91.91339111328125 -153.57876586914062,-91.91339111328125 " stroke="none" fill="none" stroke-width="0.6" stroke-opacity="0" />
  <path d="M-356.3787841796875,-91.91339874267578 C-356.3787841796875,-78.82424926757812 -373.0337829589844,-68.21339416503906 -393.5787353515625,-68.21339416503906 C-414.1237487792969,-68.21338653564453 -430.77874755859375,-78.82423400878906 -430.7787780761719,-91.91337585449219 L-430.7787780761719,-91.91337585449219 C-430.7787780761719,-105.00252532958984 -414.123779296875,-115.6133804321289 -393.57879638671875,-115.61338806152344 C-373.0338134765625,-115.6134033203125 -356.3787841796875,-105.00255584716797 -356.3787841796875,-91.91339111328125 C-356.3787841796875,-91.91339111328125 -356.3787841796875,-91.91339111328125 -356.3787841796875,-91.91339111328125 " stroke="none" fill="#70AECC" fill-rule="evenodd" stroke-width="0" fill-opacity="1" />
  <text x="2.354355812072754" y="35.284881591796875" dx="0" dy="0" font-family="Segoe UI" font-size="6.600000157356266pt" fill="#000000" style="text-anchor:start" transform="matrix(0.750000 0.000000 0.000000 0.750000 -430.77874755859375 -115.61338806152344)">Schoolzones100f</text>
  <text x="83.2498550415039" y="35.284881591796875" dx="0" dy="0" font-family="Segoe UI" font-size="6.600000157356266pt" fill="#000000" style="text-anchor:start" transform="matrix(0.750000 0.000000 0.000000 0.750000 -430.77874755859375 -115.61338806152344)"> ...</text>
  <path d="M-356.3787841796875,-91.91339874267578 C-356.3787841796875,-78.82424926757812 -373.0337829589844,-68.21339416503906 -393.5787353515625,-68.21339416503906 C-414.1237487792969,-68.21338653564453 -430.77874755859375,-78.82423400878906 -430.7787780761719,-91.91337585449219 L-430.7787780761719,-91.91337585449219 C-430.7787780761719,-105.00252532958984 -414.123779296875,-115.6133804321289 -393.57879638671875,-115.61338806152344 C-373.0338134765625,-115.6134033203125 -356.3787841796875,-105.00255584716797 -356.3787841796875,-91.91339111328125 C-356.3787841796875,-91.91339111328125 -356.3787841796875,-91.91339111328125 -356.3787841796875,-91.91339111328125 " stroke="none" fill="none" stroke-width="0.6" stroke-opacity="0" />
  <path d="M-218.8748016357422,-43.61338424682617 L-161.48268127441406,-43.61338424682617 L-161.48269653320312,-43.61338424682617 C-156.78611755371094,-43.6133918762207 -152.978759765625,-39.80605697631836 -152.978759765625,-35.10945129394531 C-152.978759765625,-35.10945129394531 -152.978759765625,-35.10944747924805 -152.978759765625,-35.10944747924805 L-152.97874450683594,-35.10944747924805 L-152.97874450683594,-4.717319488525391 L-152.978759765625,-4.717327117919922 C-152.978759765625,-0.020732879638671875 -156.7860870361328,3.786609649658203 -161.48268127441406,3.7866134643554688 L-161.48268127441406,3.7866134643554688 L-218.8748016357422,3.7866134643554688 L-218.8748016357422,3.7866134643554688 C-223.57139587402344,3.7866134643554688 -227.3787384033203,-0.020725250244140625 -227.3787384033203,-4.717319488525391 L-227.3787384033203,-35.10944747924805 L-227.37875366210938,-35.10944366455078 C-227.37875366210938,-39.80603790283203 -223.5714111328125,-43.61338424682617 -218.87481689453125,-43.61338806152344 " stroke="none" fill="#F2E279" fill-rule="evenodd" stroke-width="0" fill-opacity="1" />
  <text x="12.181021690368652" y="35.284881591796875" dx="0" dy="0" font-family="Segoe UI" font-size="6.600000157356266pt" fill="#000000" style="text-anchor:start" transform="matrix(0.750000 0.000000 0.000000 0.750000 -227.3787384033203 -43.61338424682617)">Spatial Join (2)</text>
  <path d="M-218.8748016357422,-43.61338424682617 L-161.48268127441406,-43.61338424682617 L-161.48269653320312,-43.61338424682617 C-156.78611755371094,-43.6133918762207 -152.978759765625,-39.80605697631836 -152.978759765625,-35.10945129394531 C-152.978759765625,-35.10945129394531 -152.978759765625,-35.10944747924805 -152.978759765625,-35.10944747924805 L-152.97874450683594,-35.10944747924805 L-152.97874450683594,-4.717319488525391 L-152.978759765625,-4.717327117919922 C-152.978759765625,-0.020732879638671875 -156.7860870361328,3.786609649658203 -161.48268127441406,3.7866134643554688 L-161.48268127441406,3.7866134643554688 L-218.8748016357422,3.7866134643554688 L-218.8748016357422,3.7866134643554688 C-223.57139587402344,3.7866134643554688 -227.3787384033203,-0.020725250244140625 -227.3787384033203,-4.717319488525391 L-227.3787384033203,-35.10944747924805 L-227.37875366210938,-35.10944366455078 C-227.37875366210938,-39.80603790283203 -223.5714111328125,-43.61338424682617 -218.87481689453125,-43.61338806152344 " stroke="none" fill="none" stroke-width="0.6" stroke-opacity="0" />
  <path d="M-40.77875518798828,-17.51339340209961 C-40.77875518798828,-4.424247741699219 -57.43376159667969,6.186607360839844 -77.97872924804688,6.186611175537109 C-98.52371978759766,6.186614990234375 -115.1787338256836,-4.424228668212891 -115.17874908447266,-17.51337242126465 L-115.17874908447266,-17.513368606567383 C-115.17876434326172,-30.60251808166504 -98.52377319335938,-41.21337890625 -77.9787826538086,-41.21338653564453 C-57.43378829956055,-41.21339797973633 -40.778778076171875,-30.602554321289062 -40.77875518798828,-17.51338768005371 C-40.77875518798828,-17.51338768005371 -40.77875518798828,-17.51338768005371 -40.77875518798828,-17.51338768005371 " stroke="none" fill="#83CC7C" fill-rule="evenodd" stroke-width="0" fill-opacity="1" />
  <text x="1.9353556632995605" y="35.284881591796875" dx="0" dy="0" font-family="Segoe UI" font-size="6.600000157356266pt" fill="#000000" style="text-anchor:start" transform="matrix(0.750000 0.000000 0.000000 0.750000 -115.17874145507812 -41.21338653564453)">datatable_XYTabl</text>
  <text x="83.34319305419922" y="35.284881591796875" dx="0" dy="0" font-family="Segoe UI" font-size="6.600000157356266pt" fill="#000000" style="text-anchor:start" transform="matrix(0.750000 0.000000 0.000000 0.750000 -115.17874145507812 -41.21338653564453)"> ...</text>
  <path d="M-40.77875518798828,-17.51339340209961 C-40.77875518798828,-4.424247741699219 -57.43376159667969,6.186607360839844 -77.97872924804688,6.186611175537109 C-98.52371978759766,6.186614990234375 -115.1787338256836,-4.424228668212891 -115.17874908447266,-17.51337242126465 L-115.17874908447266,-17.513368606567383 C-115.17876434326172,-30.60251808166504 -98.52377319335938,-41.21337890625 -77.9787826538086,-41.21338653564453 C-57.43378829956055,-41.21339797973633 -40.778778076171875,-30.602554321289062 -40.77875518798828,-17.51338768005371 C-40.77875518798828,-17.51338768005371 -40.77875518798828,-17.51338768005371 -40.77875518798828,-17.51338768005371 " stroke="none" fill="none" stroke-width="0.6" stroke-opacity="0" />
  <path d="M-248.97877502441406,-17.51339340209961 C-248.97877502441406,-4.424247741699219 -265.6337890625,6.186607360839844 -286.1787414550781,6.186611175537109 C-306.7237548828125,6.186614990234375 -323.3787536621094,-4.424228668212891 -323.3787841796875,-17.51337242126465 L-323.3787841796875,-17.513368606567383 C-323.3787841796875,-30.60251808166504 -306.7237854003906,-41.21337890625 -286.1788024902344,-41.21338653564453 C-265.6338195800781,-41.21339797973633 -248.97879028320312,-30.602554321289062 -248.97877502441406,-17.51338768005371 C-248.97877502441406,-17.51338768005371 -248.97877502441406,-17.51338768005371 -248.97877502441406,-17.51338768005371 " stroke="none" fill="#70AECC" fill-rule="evenodd" stroke-width="0" fill-opacity="1" />
  <text x="2.6986889839172363" y="35.284881591796875" dx="0" dy="0" font-family="Segoe UI" font-size="6.600000157356266pt" fill="#000000" style="text-anchor:start" transform="matrix(0.750000 0.000000 0.000000 0.750000 -323.3787536621094 -41.21338653564453)">RegularRoutedSt</text>
  <text x="82.69652557373047" y="35.284881591796875" dx="0" dy="0" font-family="Segoe UI" font-size="6.600000157356266pt" fill="#000000" style="text-anchor:start" transform="matrix(0.750000 0.000000 0.000000 0.750000 -323.3787536621094 -41.21338653564453)"> ...</text>
  <path d="M-248.97877502441406,-17.51339340209961 C-248.97877502441406,-4.424247741699219 -265.6337890625,6.186607360839844 -286.1787414550781,6.186611175537109 C-306.7237548828125,6.186614990234375 -323.3787536621094,-4.424228668212891 -323.3787841796875,-17.51337242126465 L-323.3787841796875,-17.513368606567383 C-323.3787841796875,-30.60251808166504 -306.7237854003906,-41.21337890625 -286.1788024902344,-41.21338653564453 C-265.6338195800781,-41.21339797973633 -248.97879028320312,-30.602554321289062 -248.97877502441406,-17.51338768005371 C-248.97877502441406,-17.51338768005371 -248.97877502441406,-17.51338768005371 -248.97877502441406,-17.51338768005371 " stroke="none" fill="none" stroke-width="0.6" stroke-opacity="0" />
  <path d="M-104.2748031616211,30.78661346435547 L-46.88268280029297,30.78661346435547 L-46.88269805908203,30.78661346435547 C-42.18611145019531,30.786605834960938 -38.378753662109375,34.59394073486328 -38.378753662109375,39.29054641723633 C-38.378753662109375,39.29054641723633 -38.378753662109375,39.290550231933594 -38.378753662109375,39.290550231933594 L-38.378746032714844,39.290550231933594 L-38.378746032714844,69.68267822265625 L-38.378753662109375,69.68267059326172 C-38.378753662109375,74.37926483154297 -42.18608856201172,78.18660736083984 -46.88268280029297,78.18660736083984 L-46.88268280029297,78.18660736083984 L-104.2748031616211,78.18660736083984 L-104.2748031616211,78.18660736083984 C-108.97139739990234,78.18660736083984 -112.77873992919922,74.3792724609375 -112.77873992919922,69.68267822265625 L-112.77873992919922,39.290550231933594 L-112.77874755859375,39.29055404663086 C-112.77874755859375,34.59395980834961 -108.9714126586914,30.7866153717041 -104.27481842041016,30.786611557006836 " stroke="none" fill="#F2E279" fill-rule="evenodd" stroke-width="0" fill-opacity="1" />
  <text x="12.181021690368652" y="35.284881591796875" dx="0" dy="0" font-family="Segoe UI" font-size="6.600000157356266pt" fill="#000000" style="text-anchor:start" transform="matrix(0.750000 0.000000 0.000000 0.750000 -112.77873992919922 30.78661346435547)">Spatial Join (3)</text>
  <path d="M-104.2748031616211,30.78661346435547 L-46.88268280029297,30.78661346435547 L-46.88269805908203,30.78661346435547 C-42.18611145019531,30.786605834960938 -38.378753662109375,34.59394073486328 -38.378753662109375,39.29054641723633 C-38.378753662109375,39.29054641723633 -38.378753662109375,39.290550231933594 -38.378753662109375,39.290550231933594 L-38.378746032714844,39.290550231933594 L-38.378746032714844,69.68267822265625 L-38.378753662109375,69.68267059326172 C-38.378753662109375,74.37926483154297 -42.18608856201172,78.18660736083984 -46.88268280029297,78.18660736083984 L-46.88268280029297,78.18660736083984 L-104.2748031616211,78.18660736083984 L-104.2748031616211,78.18660736083984 C-108.97139739990234,78.18660736083984 -112.77873992919922,74.3792724609375 -112.77873992919922,69.68267822265625 L-112.77873992919922,39.290550231933594 L-112.77874755859375,39.29055404663086 C-112.77874755859375,34.59395980834961 -108.9714126586914,30.7866153717041 -104.27481842041016,30.786611557006836 " stroke="none" fill="none" stroke-width="0.6" stroke-opacity="0" />
  <path d="M59.42124557495117,55.686607360839844 C59.42124557495117,68.77574920654297 42.766239166259766,79.38660430908203 22.221271514892578,79.38661193847656 C1.6762876510620117,79.38661193847656 -14.97872543334961,68.77577209472656 -14.978742599487305,55.68662643432617 L-14.978745460510254,55.68663024902344 C-14.97876262664795,42.59748077392578 1.676234245300293,31.986621856689453 22.221221923828125,31.986614227294922 C42.766212463378906,31.986602783203125 59.42122268676758,42.59744644165039 59.42124557495117,55.68661117553711 C59.42124557495117,55.68661117553711 59.42124557495117,55.68661117553711 59.42124557495117,55.68661117553711 " stroke="none" fill="#83CC7C" fill-rule="evenodd" stroke-width="0" fill-opacity="1" />
  <text x="1.9353556632995605" y="35.284881591796875" dx="0" dy="0" font-family="Segoe UI" font-size="6.600000157356266pt" fill="#000000" style="text-anchor:start" transform="matrix(0.750000 0.000000 0.000000 0.750000 -14.978739738464355 31.986614227294922)">datatable_XYTabl</text>
  <text x="83.34319305419922" y="35.284881591796875" dx="0" dy="0" font-family="Segoe UI" font-size="6.600000157356266pt" fill="#000000" style="text-anchor:start" transform="matrix(0.750000 0.000000 0.000000 0.750000 -14.978739738464355 31.986614227294922)"> ...</text>
  <path d="M59.42124557495117,55.686607360839844 C59.42124557495117,68.77574920654297 42.766239166259766,79.38660430908203 22.221271514892578,79.38661193847656 C1.6762876510620117,79.38661193847656 -14.97872543334961,68.77577209472656 -14.978742599487305,55.68662643432617 L-14.978745460510254,55.68663024902344 C-14.97876262664795,42.59748077392578 1.676234245300293,31.986621856689453 22.221221923828125,31.986614227294922 C42.766212463378906,31.986602783203125 59.42122268676758,42.59744644165039 59.42124557495117,55.68661117553711 C59.42124557495117,55.68661117553711 59.42124557495117,55.68661117553711 59.42124557495117,55.68661117553711 " stroke="none" fill="none" stroke-width="0.6" stroke-opacity="0" />
  <path d="M-136.7787628173828,57.48660659790039 C-136.7787628173828,70.57575225830078 -153.4337615966797,81.18660736083984 -173.97872924804688,81.18660736083984 C-194.5237274169922,81.18661499023438 -211.17874145507812,70.57576751708984 -211.1787567138672,57.48662567138672 L-211.1787567138672,57.486629486083984 C-211.17877197265625,44.39748001098633 -194.52377319335938,33.78662109375 -173.97879028320312,33.78661346435547 C-153.4337921142578,33.78660202026367 -136.77877807617188,44.39744567871094 -136.7787628173828,57.486610412597656 C-136.7787628173828,57.486610412597656 -136.7787628173828,57.486610412597656 -136.7787628173828,57.486610412597656 " stroke="none" fill="#70AECC" fill-rule="evenodd" stroke-width="0" fill-opacity="1" />
  <text x="0.9390223026275635" y="35.284881591796875" dx="0" dy="0" font-family="Segoe UI" font-size="6.600000157356266pt" fill="#000000" style="text-anchor:start" transform="matrix(0.750000 0.000000 0.000000 0.750000 -211.17874145507812 33.78661346435547)">WalkPolygonsCo</text>
  <text x="82.66319274902344" y="35.284881591796875" dx="0" dy="0" font-family="Segoe UI" font-size="6.600000157356266pt" fill="#000000" style="text-anchor:start" transform="matrix(0.750000 0.000000 0.000000 0.750000 -211.17874145507812 33.78661346435547)"> ...</text>
  <path d="M-136.7787628173828,57.48660659790039 C-136.7787628173828,70.57575225830078 -153.4337615966797,81.18660736083984 -173.97872924804688,81.18660736083984 C-194.5237274169922,81.18661499023438 -211.17874145507812,70.57576751708984 -211.1787567138672,57.48662567138672 L-211.1787567138672,57.486629486083984 C-211.17877197265625,44.39748001098633 -194.52377319335938,33.78662109375 -173.97879028320312,33.78661346435547 C-153.4337921142578,33.78660202026367 -136.77877807617188,44.39744567871094 -136.7787628173828,57.486610412597656 C-136.7787628173828,57.486610412597656 -136.7787628173828,57.486610412597656 -136.7787628173828,57.486610412597656 " stroke="none" fill="none" stroke-width="0.6" stroke-opacity="0" />
  <path d="M-88.6748046875,135.18661499023438 L-31.282684326171875,135.18661499023438 L-31.282699584960938,135.18661499023438 C-26.58611297607422,135.1865997314453 -22.77875518798828,138.9939422607422 -22.77875518798828,143.69053649902344 C-22.77875518798828,143.69053649902344 -22.77875518798828,143.6905517578125 -22.77875518798828,143.6905517578125 L-22.77874755859375,143.6905517578125 L-22.77874755859375,174.08267211914062 L-22.77875518798828,174.08267211914062 C-22.77875518798828,178.77926635742188 -26.586090087890625,182.58660888671875 -31.282684326171875,182.58660888671875 L-31.282684326171875,182.58660888671875 L-88.6748046875,182.58660888671875 L-88.6748046875,182.58660888671875 C-93.37139892578125,182.58660888671875 -97.17874145507812,178.77926635742188 -97.17874145507812,174.08267211914062 L-97.17874145507812,143.6905517578125 L-97.17874908447266,143.6905517578125 C-97.17874908447266,138.99395751953125 -93.37141418457031,135.18661499023438 -88.67481994628906,135.1865997314453 " stroke="none" fill="#F2E279" fill-rule="evenodd" stroke-width="0" fill-opacity="1" />
  <text x="17.97852325439453" y="35.284881591796875" dx="0" dy="0" font-family="Segoe UI" font-size="6.600000157356266pt" fill="#000000" style="text-anchor:start" transform="matrix(0.750000 0.000000 0.000000 0.750000 -97.17874145507812 135.18661499023438)">Export Table</text>
  <path d="M-88.6748046875,135.18661499023438 L-31.282684326171875,135.18661499023438 L-31.282699584960938,135.18661499023438 C-26.58611297607422,135.1865997314453 -22.77875518798828,138.9939422607422 -22.77875518798828,143.69053649902344 C-22.77875518798828,143.69053649902344 -22.77875518798828,143.6905517578125 -22.77875518798828,143.6905517578125 L-22.77874755859375,143.6905517578125 L-22.77874755859375,174.08267211914062 L-22.77875518798828,174.08267211914062 C-22.77875518798828,178.77926635742188 -26.586090087890625,182.58660888671875 -31.282684326171875,182.58660888671875 L-31.282684326171875,182.58660888671875 L-88.6748046875,182.58660888671875 L-88.6748046875,182.58660888671875 C-93.37139892578125,182.58660888671875 -97.17874145507812,178.77926635742188 -97.17874145507812,174.08267211914062 L-97.17874145507812,143.6905517578125 L-97.17874908447266,143.6905517578125 C-97.17874908447266,138.99395751953125 -93.37141418457031,135.18661499023438 -88.67481994628906,135.1865997314453 " stroke="none" fill="none" stroke-width="0.6" stroke-opacity="0" />
  <path d="M141.021240234375,159.48660278320312 C141.021240234375,172.5757598876953 124.36624145507812,183.18661499023438 103.82127380371094,183.18661499023438 C83.27628326416016,183.18661499023438 66.62126922607422,172.57577514648438 66.62125396728516,159.48663330078125 L66.62125396728516,159.48663330078125 C66.6212387084961,146.39747619628906 83.27622985839844,135.78662109375 103.82122039794922,135.78662109375 C124.3662109375,135.78660583496094 141.02122497558594,146.39744567871094 141.021240234375,159.4866180419922 C141.021240234375,159.4866180419922 141.021240234375,159.4866180419922 141.021240234375,159.4866180419922 " stroke="none" fill="#83CC7C" fill-rule="evenodd" stroke-width="0" fill-opacity="1" />
  <text x="14.711854934692383" y="35.284881591796875" dx="0" dy="0" font-family="Segoe UI" font-size="6.600000157356266pt" fill="#000000" style="text-anchor:start" transform="matrix(0.750000 0.000000 0.000000 0.750000 66.62126159667969 135.78662109375)">outputfile.csv</text>
  <path d="M141.021240234375,159.48660278320312 C141.021240234375,172.5757598876953 124.36624145507812,183.18661499023438 103.82127380371094,183.18661499023438 C83.27628326416016,183.18661499023438 66.62126922607422,172.57577514648438 66.62125396728516,159.48663330078125 L66.62125396728516,159.48663330078125 C66.6212387084961,146.39747619628906 83.27622985839844,135.78662109375 103.82122039794922,135.78662109375 C124.3662109375,135.78660583496094 141.02122497558594,146.39744567871094 141.021240234375,159.4866180419922 C141.021240234375,159.4866180419922 141.021240234375,159.4866180419922 141.021240234375,159.4866180419922 " stroke="none" fill="none" stroke-width="0.6" stroke-opacity="0" />
</svg>